<?xml version="1.0" standalone="no"?>
<!DOCTYPE svg PUBLIC "-//W3C//DTD SVG 20010904//EN"
 "http://www.w3.org/TR/2001/REC-SVG-20010904/DTD/svg10.dtd">
<svg version="1.0" xmlns="http://www.w3.org/2000/svg"
 width="1920.000000pt" height="1920.000000pt" viewBox="0 0 1920.000000 1920.000000"
 preserveAspectRatio="xMidYMid meet">

<g transform="translate(0.000000,1920.000000) scale(0.100000,-0.100000)"
fill="#000000" stroke="none">
<path d="M8914 15876 c-868 -434 -1050 -529 -1174 -612 -409 -276 -668 -566
-865 -969 -41 -82 -90 -199 -110 -260 -45 -134 -103 -357 -97 -373 2 -7 16
-12 30 -12 39 -1 316 -45 329 -53 17 -11 31 15 48 85 34 147 109 349 182 490
94 183 176 293 342 458 138 138 351 313 403 333 23 8 72 -13 185 -79 50 -30
97 -54 105 -54 15 0 28 7 203 104 66 37 129 76 140 87 19 19 19 19 0 34 -11 8
-55 34 -98 56 -87 47 -106 68 -79 92 10 9 231 123 492 255 261 131 506 256
544 276 52 29 76 37 100 33 39 -6 1148 -558 1153 -574 5 -13 -6 -20 -192 -133
-66 -40 -174 -107 -240 -150 -121 -77 -200 -126 -422 -261 -67 -41 -122 -80
-123 -87 0 -14 122 -95 260 -171 l95 -53 60 33 c33 18 110 65 170 105 61 39
193 123 295 186 102 63 213 132 248 154 211 132 247 154 257 154 21 0 135 -74
220 -143 375 -301 616 -670 724 -1109 26 -107 26 -108 56 -108 42 0 347 38
353 44 13 13 -54 275 -109 426 -148 404 -452 814 -794 1069 -243 181 -318 223
-1145 637 -808 404 -828 414 -869 414 -16 0 -298 -135 -677 -324z"/>
<path d="M9250 14509 c-69 -39 -153 -84 -188 -101 -35 -17 -60 -34 -55 -39 9
-9 66 -45 278 -175 77 -47 181 -112 230 -144 50 -32 124 -78 165 -103 123 -72
390 -236 462 -283 126 -84 240 -232 283 -367 55 -172 55 -172 55 -1354 0 -979
2 -1093 15 -1093 34 0 346 127 369 150 15 15 21 1858 7 2085 -26 408 -185 691
-509 908 -77 51 -362 224 -467 283 -86 48 -417 252 -446 275 -20 16 -45 29
-55 29 -11 -1 -75 -33 -144 -71z"/>
<path d="M8993 14096 c-135 -78 -287 -188 -354 -255 -121 -122 -217 -275 -269
-431 -64 -192 -62 -150 -66 -1140 -3 -498 -1 -988 3 -1090 l8 -185 90 -36 c50
-20 133 -55 185 -76 53 -22 100 -38 105 -36 7 2 9 380 7 1055 -2 668 1 1095 7
1169 20 217 97 386 243 525 58 56 87 76 229 154 135 75 239 142 239 154 0 6
-22 23 -49 39 -27 15 -100 59 -162 98 -62 39 -126 73 -143 75 -21 3 -45 -3
-73 -20z"/>
<path d="M5799 13173 c-11 -31 -12 -2993 0 -3011 5 -9 64 -18 192 -28 372 -29
675 -65 849 -100 250 -50 510 -111 615 -144 50 -16 147 -45 217 -65 168 -47
421 -139 658 -237 251 -104 858 -414 882 -451 12 -19 -5 -37 -86 -92 -44 -30
-92 -63 -106 -72 -27 -19 -198 -151 -353 -275 l-98 -78 -772 2 -772 3 -3 597
-2 597 -38 10 c-64 16 -255 50 -302 53 l-45 3 -5 -735 -5 -735 -270 -7 c-698
-19 -1671 -70 -1690 -90 -10 -10 39 -16 220 -28 697 -45 1360 -62 2616 -67
l1166 -5 50 35 c28 19 86 63 129 97 187 146 456 350 539 409 50 36 111 82 136
103 25 21 52 38 60 38 12 0 91 -54 278 -190 44 -32 358 -267 526 -394 l129
-98 1201 5 c1200 5 1312 8 2236 52 328 15 545 34 532 45 -8 7 -148 20 -418 40
-159 11 -850 38 -1240 48 l-260 7 -6 725 c-3 399 -7 729 -8 734 -2 17 -347
-36 -377 -58 -13 -10 -16 -88 -22 -606 -7 -558 -8 -595 -24 -594 -10 0 -351 1
-757 2 l-739 2 -112 88 c-101 79 -319 240 -494 364 -69 49 -78 64 -48 75 9 4
71 37 137 73 307 170 429 231 700 350 122 54 440 175 572 219 254 84 598 171
953 241 194 39 421 65 835 98 l210 17 3 1523 2 1522 -27 0 c-38 0 -336 -47
-503 -79 l-135 -26 -3 -199 -2 -198 27 5 c115 24 214 39 227 34 15 -6 16 -108
16 -1111 l0 -1104 -22 -6 c-13 -3 -46 -6 -74 -6 -113 0 -526 -61 -739 -109
-50 -11 -115 -26 -145 -32 -101 -20 -473 -116 -600 -153 -210 -62 -493 -165
-637 -231 -17 -8 -33 -15 -36 -15 -3 0 -48 -20 -101 -45 -53 -25 -99 -45 -102
-45 -3 0 -94 -43 -202 -96 -182 -89 -416 -217 -537 -292 -88 -55 -190 -112
-200 -112 -6 0 -53 25 -105 57 -380 226 -748 410 -1187 593 -196 82 -653 228
-888 284 -431 102 -690 150 -980 181 -82 9 -170 19 -195 23 l-45 7 -3 1100
c-1 604 1 1102 6 1107 6 6 118 -7 225 -27 l37 -7 0 182 c0 100 -4 190 -10 200
-12 22 -74 36 -365 84 -294 48 -275 47 -286 19z"/>
<path d="M9351 7938 c-46 -13 -162 -130 -190 -190 -29 -64 -28 -112 4 -143 13
-14 29 -25 35 -25 20 0 10 -47 -16 -71 -33 -30 -59 -88 -46 -101 6 -6 47 15
108 55 55 36 148 89 207 117 105 52 121 65 137 119 4 14 11 34 15 44 11 27
-16 21 -80 -18 -76 -45 -118 -58 -171 -52 -50 5 -114 48 -114 77 0 51 105 80
148 40 28 -26 29 -26 52 13 52 85 2 161 -89 135z"/>
<path d="M9966 7903 c-7 -16 -28 -72 -45 -126 -28 -93 -29 -100 -14 -123 10
-16 18 -63 24 -142 8 -125 23 -272 39 -387 9 -71 51 -408 70 -565 15 -119 27
-211 51 -389 27 -198 23 -305 -13 -376 -100 -194 -301 -352 -776 -606 -173
-92 -218 -120 -220 -138 -4 -25 -11 -25 153 5 246 44 452 108 565 174 114 67
245 223 319 382 143 304 152 495 55 1218 -57 427 -73 600 -55 600 4 0 31 -18
59 -40 27 -22 53 -40 57 -40 23 0 -20 120 -118 330 -19 41 -53 114 -75 163
-22 48 -45 87 -51 87 -6 0 -17 -12 -25 -27z"/>
<path d="M14384 7868 c-5 -7 -30 -67 -55 -132 l-47 -119 19 -43 c14 -30 22
-84 29 -181 6 -76 17 -239 25 -363 9 -124 20 -268 25 -320 5 -52 14 -147 20
-210 6 -63 15 -169 20 -235 5 -66 14 -181 20 -255 26 -325 30 -436 24 -602 -8
-203 -2 -218 47 -114 32 68 61 159 85 271 31 141 29 384 -6 750 -25 262 -80
925 -80 968 0 27 5 47 11 47 6 0 29 -16 52 -35 22 -19 45 -35 50 -35 23 0 -6
106 -74 270 -39 96 -85 209 -101 250 -35 87 -51 109 -64 88z"/>
<path d="M10602 7857 c-6 -7 -23 -46 -38 -87 -14 -41 -30 -79 -34 -85 -18 -24
-21 -77 -7 -108 16 -34 29 -158 47 -442 6 -93 15 -215 20 -270 5 -55 14 -156
20 -225 25 -297 31 -364 46 -520 27 -289 36 -510 29 -708 -5 -156 -3 -193 7
-190 37 13 97 176 128 354 36 199 31 344 -35 1044 -42 451 -60 699 -49 710 6
6 25 -5 54 -30 50 -44 58 -47 67 -25 7 21 -94 297 -172 470 -15 33 -34 75 -42
93 -15 35 -25 39 -41 19z"/>
<path d="M8465 7720 c-3 -5 -8 -67 -12 -137 -6 -128 -6 -129 18 -145 23 -15
47 -48 134 -182 103 -160 427 -497 676 -703 244 -204 444 -430 527 -598 36
-73 72 -187 72 -228 0 -9 6 -17 14 -17 32 0 45 158 26 295 -37 257 -166 426
-679 888 -229 206 -503 490 -498 517 2 12 16 14 69 12 37 -2 68 1 72 6 7 11
-171 148 -316 244 -95 63 -94 62 -103 48z"/>
<path d="M7009 7128 c-7 -24 -13 -80 -14 -126 l0 -83 -41 -38 c-69 -63 -143
-204 -176 -334 -25 -97 -22 -222 6 -279 10 -20 15 -42 11 -47 -7 -12 -129 -51
-335 -106 -573 -155 -757 -247 -1063 -531 -262 -243 -356 -317 -437 -342 -143
-45 -246 -13 -303 93 -19 34 -22 56 -22 150 1 94 5 123 29 195 35 103 87 225
127 291 16 28 29 54 29 58 0 13 -70 19 -79 7 -17 -21 -98 -192 -129 -271 -57
-148 -75 -261 -60 -390 27 -225 204 -380 406 -355 133 17 222 74 426 269 163
156 215 201 338 285 173 119 295 167 673 262 200 51 509 165 597 221 21 12 45
23 55 23 35 0 185 -53 190 -67 3 -8 -15 -58 -40 -111 -99 -210 -137 -336 -137
-455 0 -65 23 -165 51 -219 30 -59 116 -146 174 -176 45 -24 60 -27 155 -26
172 1 204 23 557 372 262 259 342 329 473 414 189 122 268 152 400 152 87 0
100 -3 157 -32 34 -17 78 -48 98 -68 24 -24 40 -33 47 -26 5 5 15 55 21 111
10 96 10 103 -11 146 -55 114 -215 161 -405 119 -135 -30 -355 -149 -511 -277
-96 -80 -147 -126 -381 -356 -293 -288 -389 -351 -532 -351 -69 0 -112 18
-150 65 -96 116 -63 337 100 663 20 40 24 43 52 37 16 -3 100 -9 186 -12 l157
-5 40 36 c114 103 164 366 97 512 -39 84 -169 193 -366 307 -68 39 -149 105
-149 122 0 11 11 15 40 15 22 0 40 4 40 9 0 9 -104 72 -170 103 -105 49 -193
88 -200 88 -4 0 -13 -19 -21 -42z m163 -385 c47 -50 88 -145 88 -204 0 -52 -2
-55 -59 -110 -37 -37 -74 -62 -99 -70 -38 -11 -46 -10 -98 16 -113 55 -156
114 -134 182 19 59 57 107 125 159 82 62 136 70 177 27z m285 -175 c211 -131
332 -260 296 -317 -8 -12 -31 -17 -106 -19 -138 -4 -357 43 -357 77 0 5 13 36
30 69 27 55 40 104 45 171 6 76 1 75 92 19z"/>
<path d="M8200 6826 c-28 -58 -49 -110 -45 -116 9 -14 231 -160 244 -160 13 0
111 183 111 208 0 14 -30 40 -111 92 -61 40 -119 74 -129 77 -15 4 -28 -15
-70 -101z"/>
<path d="M13891 6849 c-26 -70 -61 -183 -61 -198 0 -9 9 -29 21 -46 41 -60 89
-165 89 -194 0 -34 -40 -70 -99 -90 -47 -15 -207 -14 -262 3 -93 28 -128 59
-202 174 -15 23 -29 42 -32 42 -9 0 -37 -75 -56 -151 -20 -83 -21 -75 26 -184
28 -63 66 -191 80 -264 24 -125 23 -132 -41 -191 -221 -201 -712 -413 -1068
-461 -120 -15 -370 -7 -456 16 -133 36 -252 104 -336 193 -19 20 -53 75 -77
121 -42 83 -42 86 -45 206 -4 123 10 220 44 320 12 36 13 50 3 61 -19 23 -25
17 -47 -38 -49 -127 -62 -173 -78 -280 -29 -199 -4 -380 75 -536 112 -221 355
-342 689 -342 154 0 288 20 452 67 47 14 99 28 115 33 31 8 55 16 90 30 276
108 512 246 640 375 57 57 75 83 97 142 31 82 58 228 58 319 0 75 10 86 65 74
110 -26 261 4 334 66 108 93 166 271 141 436 -6 45 -21 107 -32 137 -23 60
-75 148 -101 170 -15 11 -18 10 -26 -10z"/>
<path d="M4961 6329 c-5 -13 -6 -28 -3 -34 3 -5 9 4 14 20 9 36 2 46 -11 14z"/>
<path d="M12324 6332 c-19 -13 -114 -184 -114 -204 0 -11 84 -74 115 -87 6 -2
33 -21 62 -43 29 -21 58 -38 65 -38 19 0 110 159 112 194 1 24 -9 37 -60 76
-78 61 -166 111 -180 102z"/>
<path d="M13781 5573 c-55 -98 -59 -108 -45 -124 19 -21 233 -164 237 -158 37
48 117 193 117 212 0 7 -15 24 -32 38 -42 30 -207 139 -213 139 -2 0 -31 -48
-64 -107z"/>
<path d="M8470 4659 c-1459 -10 -2646 -36 -3580 -80 -112 -5 -216 -9 -230 -9
-20 -1 -22 -2 -9 -10 42 -24 1034 -66 2129 -90 2139 -46 5004 -31 6785 35 226
8 475 19 555 24 80 6 193 13 253 17 59 3 109 10 112 14 3 4 -66 11 -153 15
-86 3 -231 11 -322 16 -91 5 -340 14 -555 19 -214 5 -583 14 -820 19 -236 6
-497 13 -580 16 -82 2 -663 7 -1290 10 -627 3 -1180 7 -1230 8 -49 1 -529 0
-1065 -4z"/>
</g>
</svg>
